# xmcd
#
# Track frame offsets:
# 150
# 29701
# 55846
# 82716
# 115377
# 145360
# 167089
# 186227
# 204498
# 220243
#
# Disc length: 3178 seconds
#
# Revision: 1
# Processed by: cddbd v1.5.2PL0 Copyright (c) Steve Scherf et al.
# Submitted via: Axialis_AX_CDPlayer 2.6
#
DISCID=900c680a
DTITLE=Funky Groove - Go To Chechua Mountain
DYEAR=04
DGENRE=
TTITLE0=Go To Chechua Mountain
TTITLE1=Do You Look For The Holy Grail
TTITLE2=Matias Twist
TTITLE3=John's Ballad
TTITLE4=No Longer
TTITLE5=Something For Something
TTITLE6=Don't Move
TTITLE7=Jaco Taco
TTITLE8=Pragne
TTITLE9=Coming Home Baby 
EXTD=
EXTT0=
EXTT1=
EXTT2=
EXTT3=
EXTT4=
EXTT5=
EXTT6=
EXTT7=
EXTT8=
EXTT9=
PLAYORDER=
